<?xml version="1.0" encoding="UTF-8"?>
<!DOCTYPE svg PUBLIC "-//W3C//DTD SVG 1.1//EN" "http://www.w3.org/Graphics/SVG/1.1/DTD/svg11.dtd">
<!-- Creator: CorelDRAW -->
<svg xmlns="http://www.w3.org/2000/svg" xml:space="preserve" width="304.8mm" height="127mm" version="1.1" style="shape-rendering:geometricPrecision; text-rendering:geometricPrecision; image-rendering:optimizeQuality; fill-rule:evenodd; clip-rule:evenodd"
viewBox="0 0 30480 12700"
 xmlns:xlink="http://www.w3.org/1999/xlink"
 xmlns:xodm="http://www.corel.com/coreldraw/odm/2003">
 <defs>
  <style type="text/css">
   <![CDATA[
    .str2 {stroke:#009846;stroke-width:258.85;stroke-linecap:round;stroke-linejoin:round;stroke-miterlimit:22.9256}
    .str1 {stroke:#009846;stroke-width:282.1;stroke-linecap:round;stroke-linejoin:round;stroke-miterlimit:22.9256}
    .str0 {stroke:#2B2A29;stroke-width:282.1;stroke-linecap:round;stroke-linejoin:round;stroke-miterlimit:22.9256}
    .fil0 {fill:none;fill-rule:nonzero}
    .fil2 {fill:#2B2A29;fill-rule:nonzero}
    .fil1 {fill:#009846;fill-rule:nonzero}
   ]]>
  </style>
 </defs>
 <g id="Layer_x0020_1">
  <metadata id="CorelCorpID_0Corel-Layer"/>
  <g id="_2303903065152">
   <g>
    <path class="fil0 str0" d="M9291.58 4452.67c0,0 1348.62,-638.59 2737.43,-31.91 1388.81,606.66 2422.79,260.9 2635.52,-361.02 212.73,-621.91 -447.23,-194.97 -284.86,171.44 162.36,366.4 582.77,74.65 582.77,74.65 0,0 -266.73,802.45 148.61,719.81 415.33,-82.64 578.4,-858.63 502.29,-1065.21 -76.11,-206.58 -93.85,711.07 -51.81,941.94 42.04,230.86 -51.74,-672.05 228.67,-854.6 280.41,-182.56 296.47,199.7 280.89,443.95 -15.58,244.28 -8.44,493.23 580.6,5.08 589.04,-488.14 1264.11,-411 2038.61,-144.99 774.49,266 1506.94,672.63 2498.16,72.8"/>
    <path class="fil0 str1" d="M12283.36 3862.16c250.98,-1405.22 1479.25,-2471.9 2956.65,-2471.9 1397.89,0 2572.72,954.96 2907.74,2248.07"/>
    <polyline class="fil0 str2" points="18341.43,3297.4 18159.2,3670.23 17786.36,3488 "/>
    <path class="fil0 str1" d="M18196.66 4913.4c-250.99,1405.23 -1479.25,2471.9 -2956.65,2471.9 -1397.89,0 -2572.72,-954.95 -2907.75,-2248.06"/>
    <polyline class="fil0 str2" points="12138.51,5478.12 12320.74,5105.29 12693.57,5287.52 "/>
   </g>
   <path class="fil1" d="M9519.69 11261l-236.77 -809.71c-57.28,-247.41 -221.49,-352.37 -351.34,-382.36l0 -18.75c362.8,-44.98 492.64,-266.15 492.64,-652.26 0,-588.54 -267.32,-757.23 -916.53,-757.23 -450.63,0 -656.84,3.75 -958.54,33.74l0 2586.57 473.54 0 0 -1034.63 473.54 0c160.4,0 252.05,63.73 305.51,232.41l210.04 802.22 507.91 0zm-1497 -1420.74l0 -813.46 473.54 0c336.06,0 442.99,82.47 442.99,401.11 0,318.63 -106.93,408.6 -442.99,412.35l-473.54 0z"/>
   <path class="fil1" d="M10701.26 10934.86c-320.79,0 -462.08,-67.47 -500.27,-401.1l763.77 0c347.51,0 500.27,-194.93 500.27,-524.81 0,-416.1 -244.41,-637.27 -851.61,-637.27 -633.93,0 -905.07,239.91 -905.07,967.15 0,697.25 255.87,967.15 935.63,967.15 236.76,0 572.82,-29.99 771.4,-123.71l-42.01 -292.39c-225.31,26.24 -492.63,44.98 -672.11,44.98zm-68.75 -1203.31c286.42,0 370.44,74.97 370.44,269.9 0,97.47 -19.1,213.67 -168.03,213.67l-645.39 0c15.27,-386.11 118.38,-483.57 442.98,-483.57z"/>
   <path class="fil2" d="M13956.46 8674.43l-465.89 0 0 1671.9c0,138.7 7.63,277.39 19.09,419.84l-45.82 0c-57.29,-138.7 -133.66,-296.14 -183.31,-408.6l-717.95 -1540.69c-45.82,-97.47 -95.47,-142.45 -198.58,-142.45l-370.43 0c-114.57,0 -179.49,59.98 -179.49,172.44l0 2414.13 469.73 0 0 -1724.38c0,-127.46 -3.82,-258.66 -22.92,-389.86l45.83 0c26.73,119.96 106.92,281.15 156.57,386.11l740.86 1585.68c42.01,97.46 95.47,142.45 198.58,142.45l378.07 0c114.56,0 175.66,-59.98 175.66,-172.44l0 -2414.13z"/>
   <path class="fil2" d="M15248.78 9371.68c-675.94,0 -927.98,266.15 -927.98,970.9 0,704.74 252.04,967.15 927.98,967.15 672.12,0 920.35,-262.41 920.35,-967.15 0,-704.75 -248.23,-970.9 -920.35,-970.9zm0 363.61c336.06,0 439.17,131.21 439.17,607.29 0,472.33 -103.11,603.53 -439.17,603.53 -343.7,0 -442.99,-131.2 -442.99,-603.53 0,-476.08 99.29,-607.29 442.99,-607.29z"/>
   <path class="fil2" d="M17117.75 9754.04l549.91 0 0 -329.88 -549.91 0 0 -528.56 -462.08 0 0 528.56 -336.06 18.74 0 311.14 336.06 0 3.81 1012.13c0,341.13 179.49,536.06 507.91,536.06 114.57,0 351.34,-22.49 481.18,-63.73l-49.65 -337.37 -255.86 0c-168.03,0 -225.31,-52.49 -225.31,-213.68l0 -933.41z"/>
   <path class="fil2" d="M18826.32 10934.86c-320.78,0 -462.08,-67.47 -500.27,-401.1l763.77 0c347.52,0 500.27,-194.93 500.27,-524.81 0,-416.1 -244.4,-637.27 -851.6,-637.27 -633.93,0 -905.08,239.91 -905.08,967.15 0,697.25 255.87,967.15 935.63,967.15 236.77,0 572.83,-29.99 771.4,-123.71l-42 -292.39c-225.31,26.24 -492.63,44.98 -672.12,44.98zm-68.74 -1203.31c286.41,0 370.43,74.97 370.43,269.9 0,97.47 -19.09,213.67 -168.03,213.67l-645.39 0c15.28,-386.11 118.39,-483.57 442.99,-483.57z"/>
   <path class="fil2" d="M21539.25 10530.01l217.68 730.99 488.81 0 -790.51 -2462.87c-22.91,-78.72 -91.65,-123.7 -171.84,-123.7l-465.91 0c-80.19,0 -148.93,44.98 -171.84,123.7l-790.51 2462.87 488.82 0 217.67 -730.99 977.63 0zm-114.57 -386.11l-748.49 0 263.5 -892.18 61.1 -221.17 103.11 0c11.46,71.22 38.19,149.95 57.29,221.17l263.49 892.18z"/>
   <polygon class="fil2" points="22930.86,11261 22930.86,8674.43 22453.5,8674.43 22453.5,11261 "/>
  </g>
 </g>
</svg>
